<svg width="1200" height="800" viewBox="0 0 1200 800" fill="none" xmlns="http://www.w3.org/2000/svg">
  <rect width="1200" height="800" rx="32" fill="#0A0F1C"/>
  <circle cx="220" cy="170" r="150" fill="#F97316" fill-opacity="0.14"/>
  <circle cx="980" cy="160" r="180" fill="#FB923C" fill-opacity="0.08"/>
  <!-- Moto frame -->
  <path d="M250 510H400L460 420H640L690 370H900L960 480H1050" stroke="#FED7AA" stroke-width="18" stroke-linecap="round" stroke-linejoin="round"/>
  <!-- Cargo box -->
  <rect x="690" y="280" width="180" height="110" rx="14" fill="#1E293B" stroke="#F97316" stroke-width="10"/>
  <rect x="870" y="310" width="90" height="80" rx="10" fill="#0F172A" stroke="#FB923C" stroke-width="8"/>
  <line x1="720" y1="320" x2="840" y2="320" stroke="#F97316" stroke-width="4" opacity="0.5"/>
  <line x1="720" y1="350" x2="840" y2="350" stroke="#F97316" stroke-width="4" opacity="0.3"/>
  <!-- Front wheel -->
  <circle cx="330" cy="510" r="85" stroke="#F1F5F9" stroke-width="18"/>
  <circle cx="330" cy="510" r="26" fill="#F97316" fill-opacity="0.3"/>
  <!-- Rear wheel -->
  <circle cx="940" cy="510" r="85" stroke="#F1F5F9" stroke-width="18"/>
  <circle cx="940" cy="510" r="26" fill="#F97316" fill-opacity="0.3"/>
  <!-- Chain -->
  <path d="M470 510H810" stroke="#F97316" stroke-width="12" stroke-linecap="round"/>
  <!-- Text -->
  <text x="80" y="120" fill="#F1F5F9" font-family="Arial,sans-serif" font-size="54" font-weight="700">CARGO SERIES</text>
  <text x="80" y="168" fill="#94A3B8" font-family="Arial,sans-serif" font-size="24">VodiyMoto yuk tashish yechimi</text>
</svg>
