<svg width="1200" height="800" viewBox="0 0 1200 800" fill="none" xmlns="http://www.w3.org/2000/svg">
  <rect width="1200" height="800" rx="32" fill="#06101A"/>
  <circle cx="230" cy="170" r="150" fill="#0EA5E9" fill-opacity="0.14"/>
  <circle cx="980" cy="155" r="190" fill="#38BDF8" fill-opacity="0.08"/>
  <!-- Moto frame -->
  <path d="M270 515H420L510 380H720L830 420H900L965 515H1045" stroke="#BAE6FD" stroke-width="18" stroke-linecap="round" stroke-linejoin="round"/>
  <!-- Battery pack -->
  <rect x="545" y="400" width="130" height="75" rx="16" fill="#0C4A6E" stroke="#0EA5E9" stroke-width="10"/>
  <!-- Lightning bolt -->
  <path d="M600 410L590 435H620L610 460" stroke="#38BDF8" stroke-width="6" stroke-linecap="round" stroke-linejoin="round"/>
  <!-- Top bar -->
  <path d="M605 370L660 310H740" stroke="#7DD3FC" stroke-width="14" stroke-linecap="round"/>
  <!-- Front wheel -->
  <circle cx="345" cy="515" r="88" stroke="#F1F5F9" stroke-width="18"/>
  <circle cx="345" cy="515" r="27" fill="#0EA5E9" fill-opacity="0.35"/>
  <!-- Rear wheel -->
  <circle cx="940" cy="515" r="88" stroke="#F1F5F9" stroke-width="18"/>
  <circle cx="940" cy="515" r="27" fill="#0EA5E9" fill-opacity="0.35"/>
  <!-- Chain -->
  <path d="M485 510H815" stroke="#0EA5E9" stroke-width="12" stroke-linecap="round"/>
  <!-- Charge indicator dots -->
  <circle cx="570" cy="488" r="5" fill="#0EA5E9"/>
  <circle cx="590" cy="488" r="5" fill="#0EA5E9"/>
  <circle cx="610" cy="488" r="5" fill="#0EA5E9"/>
  <circle cx="630" cy="488" r="5" fill="#0EA5E9" opacity="0.3"/>
  <!-- Text -->
  <text x="80" y="120" fill="#F1F5F9" font-family="Arial,sans-serif" font-size="54" font-weight="700">ELECTRIC SERIES</text>
  <text x="80" y="168" fill="#94A3B8" font-family="Arial,sans-serif" font-size="24">VodiyMoto elektron harakat</text>
</svg>
